# xmcd CD database file
#
# Track frame offsets:
#	150
#	12565
#	23287
#	36792
#	48255
#	62277
#	72252
#	87532
#	100967
#	117887
#	131602
#	143532
#	155382
#	167780
#	184187
#	195722
#	207500
#	225502
#	239847
#	255285
#
# Disc length: 3559 seconds
#
# Revision: 0
# Processed by: cddbd v1.5.2PL0 Copyright (c) Steve Scherf et al.
# Submitted via: jetAudio 7
#
DISCID=0b0de514
DTITLE=Various Artist - Golden Oldies Collection Vol.2
DYEAR=1900
DGENRE=Oldies
TTITLE0=500 Miles
TTITLE1=More Than I Can Say
TTITLE2=Top of the World
TTITLE3=Let It Be Me
TTITLE4=El Condor Pasa
TTITLE5=Smoke Get in Your Eyes
TTITLE6=Torn Between Two Lovers
TTITLE7=San Francisco
TTITLE8=Killing Me Softly with His Song
TTITLE9=Green Green Grass of Home
TTITLE10=Before the Next Teardrop Falls
TTITLE11=Put Your Hand on My Shoulder
TTITLE12=You Are So Beautiful
TTITLE13=For the Good Time
TTITLE14=Stand by Me
TTITLE15=You Mean Everything to Me
TTITLE16=Memory
TTITLE17=Morning Has Broken
TTITLE18=Sometimes When We Touch
TTITLE19=When Will I See You Again
EXTD=
EXTT0=
EXTT1=
EXTT2=
EXTT3=
EXTT4=
EXTT5=
EXTT6=
EXTT7=
EXTT8=
EXTT9=
EXTT10=
EXTT11=
EXTT12=
EXTT13=
EXTT14=
EXTT15=
EXTT16=
EXTT17=
EXTT18=
EXTT19=
PLAYORDER=
